<svg width="338" height="60" viewBox="0 0 338 60" fill="none" xmlns="http://www.w3.org/2000/svg">
<path fill-rule="evenodd" clip-rule="evenodd" d="M0 30C0 24.0666 1.75945 18.2664 5.0559 13.3329C8.35234 8.39941 13.0377 4.55425 18.5195 2.28362C24.0013 0.0129938 30.0333 -0.5811 35.8527 0.576457C41.6721 1.73401 47.0176 4.59123 51.2132 8.7868C55.4088 12.9824 58.266 18.3279 59.4235 24.1473C60.5811 29.9667 59.987 35.9987 57.7164 41.4805C55.4457 46.9623 51.6006 51.6476 46.6671 54.9441C41.7336 58.2405 35.9334 60 30 60C26.0603 60 22.1592 59.224 18.5195 57.7164C14.8797 56.2088 11.5725 53.999 8.78675 51.2132C6.00099 48.4275 3.79123 45.1203 2.2836 41.4805C0.775959 37.8407 -7.62939e-06 33.9397 0 30ZM23.6848 18.7418L17.3698 29.6797H29.0331V9.4784L23.6848 18.7418ZM30.9668 9.47817V29.6797H42.63L36.315 18.7418L30.9668 9.47817ZM52.1444 31.6134H7.85548L12.0545 38.886H47.9455L52.1444 31.6134ZM46.8291 40.8198H13.1708L17.3698 48.0927H42.63L46.8291 40.8198Z" fill="#0F172A"/>
<path d="M107.456 16.3268V43.6774H100.794V27.2748L94.6772 43.6774H89.3006L83.1448 27.2359V43.6774H76.4824V16.3268H84.3526L92.0279 35.2618L99.6253 16.3268H107.456Z" fill="#0F172A"/>
<path d="M132.741 32.4566C132.741 33.08 132.702 33.7294 132.624 34.4047H117.546C117.65 35.7554 118.079 36.7943 118.832 37.5216C119.611 38.2229 120.559 38.5735 121.676 38.5735C123.338 38.5735 124.494 37.8722 125.144 36.4696H132.234C131.871 37.8982 131.208 39.1839 130.247 40.3268C129.312 41.4696 128.131 42.3657 126.702 43.0151C125.273 43.6644 123.676 43.9891 121.91 43.9891C119.78 43.9891 117.884 43.5346 116.221 42.6255C114.559 41.7164 113.26 40.4177 112.325 38.7294C111.39 37.0411 110.923 35.067 110.923 32.8073C110.923 30.5476 111.377 28.5735 112.286 26.8852C113.221 25.1969 114.52 23.8982 116.182 22.9891C117.845 22.08 119.754 21.6255 121.91 21.6255C124.014 21.6255 125.884 22.067 127.52 22.9502C129.157 23.8333 130.429 25.093 131.338 26.7294C132.273 28.3657 132.741 30.2748 132.741 32.4566ZM125.923 30.7034C125.923 29.5605 125.533 28.6515 124.754 27.9761C123.975 27.3008 123.001 26.9631 121.832 26.9631C120.715 26.9631 119.767 27.2878 118.988 27.9372C118.234 28.5865 117.767 29.5086 117.585 30.7034H125.923Z" fill="#0F172A"/>
<path d="M149.502 21.7034C152.048 21.7034 154.074 22.5346 155.58 24.1969C157.113 25.8333 157.879 28.093 157.879 30.9761V43.6774H151.256V31.8722C151.256 30.4177 150.879 29.2878 150.126 28.4826C149.373 27.6774 148.36 27.2748 147.087 27.2748C145.814 27.2748 144.801 27.6774 144.048 28.4826C143.295 29.2878 142.918 30.4177 142.918 31.8722V43.6774H136.256V21.9372H142.918V24.8203C143.593 23.8592 144.502 23.106 145.645 22.5605C146.788 21.9891 148.074 21.7034 149.502 21.7034Z" fill="#0F172A"/>
<path d="M174.626 38.0281V43.6774H171.236C168.82 43.6774 166.937 43.093 165.587 41.9242C164.236 40.7294 163.561 38.7943 163.561 36.119V27.4696H160.911V21.9372H163.561V16.6385H170.223V21.9372H174.587V27.4696H170.223V36.1969C170.223 36.8463 170.379 37.3138 170.691 37.5995C171.002 37.8852 171.522 38.0281 172.249 38.0281H174.626Z" fill="#0F172A"/>
<path d="M188.574 43.9891C186.444 43.9891 184.522 43.5346 182.808 42.6255C181.119 41.7164 179.782 40.4177 178.795 38.7294C177.834 37.0411 177.353 35.067 177.353 32.8073C177.353 30.5735 177.847 28.6125 178.834 26.9242C179.821 25.2099 181.171 23.8982 182.886 22.9891C184.6 22.08 186.522 21.6255 188.652 21.6255C190.782 21.6255 192.704 22.08 194.418 22.9891C196.132 23.8982 197.483 25.2099 198.47 26.9242C199.457 28.6125 199.95 30.5735 199.95 32.8073C199.95 35.0411 199.444 37.0151 198.431 38.7294C197.444 40.4177 196.08 41.7164 194.34 42.6255C192.626 43.5346 190.704 43.9891 188.574 43.9891ZM188.574 38.2229C189.847 38.2229 190.925 37.7553 191.808 36.8203C192.717 35.8852 193.171 34.5476 193.171 32.8073C193.171 31.067 192.73 29.7294 191.847 28.7943C190.989 27.8592 189.925 27.3917 188.652 27.3917C187.353 27.3917 186.275 27.8592 185.418 28.7943C184.561 29.7034 184.132 31.0411 184.132 32.8073C184.132 34.5476 184.548 35.8852 185.379 36.8203C186.236 37.7553 187.301 38.2229 188.574 38.2229Z" fill="#0F172A"/>
<path d="M210.403 25.5605C211.182 24.3657 212.156 23.4307 213.325 22.7554C214.494 22.0541 215.793 21.7034 217.221 21.7034V28.7553H215.39C213.728 28.7553 212.481 29.119 211.65 29.8463C210.819 30.5476 210.403 31.7943 210.403 33.5865V43.6774H203.741V21.9372H210.403V25.5605Z" fill="#0F172A"/>
<path d="M220.604 30.08C220.604 27.4307 221.201 25.0541 222.396 22.9502C223.591 20.8203 225.214 19.1579 227.266 17.9631C229.344 16.7683 231.643 16.1709 234.162 16.1709C237.123 16.1709 239.708 16.8852 241.915 18.3138C244.123 19.7424 245.734 21.7683 246.747 24.3917H242.5C241.747 22.7554 240.656 21.4956 239.227 20.6125C237.825 19.7294 236.136 19.2878 234.162 19.2878C232.266 19.2878 230.565 19.7294 229.058 20.6125C227.552 21.4956 226.37 22.7554 225.513 24.3917C224.656 26.0021 224.227 27.8982 224.227 30.08C224.227 32.2359 224.656 34.132 225.513 35.7683C226.37 37.3787 227.552 38.6255 229.058 39.5086C230.565 40.3917 232.266 40.8333 234.162 40.8333C236.136 40.8333 237.825 40.4047 239.227 39.5476C240.656 38.6644 241.747 37.4047 242.5 35.7683H246.747C245.734 38.3657 244.123 40.3787 241.915 41.8073C239.708 43.2099 237.123 43.9112 234.162 43.9112C231.643 43.9112 229.344 43.3268 227.266 42.1579C225.214 40.9631 223.591 39.3138 222.396 37.2099C221.201 35.106 220.604 32.7294 220.604 30.08Z" fill="#0F172A"/>
<path d="M254.035 25.7943C254.658 24.5735 255.541 23.6255 256.684 22.9502C257.853 22.2748 259.268 21.9372 260.931 21.9372V25.5995H259.996C256.022 25.5995 254.035 27.7553 254.035 32.067V43.6774H250.489V22.3268H254.035V25.7943Z" fill="#0F172A"/>
<path d="M283.447 22.3268V43.6774H279.901V40.5216C279.226 41.6125 278.278 42.4696 277.057 43.093C275.862 43.6904 274.538 43.9891 273.083 43.9891C271.421 43.9891 269.927 43.6515 268.603 42.9761C267.278 42.2748 266.226 41.2359 265.447 39.8592C264.693 38.4826 264.317 36.8073 264.317 34.8333V22.3268H267.823V34.3657C267.823 36.4696 268.356 38.093 269.421 39.2359C270.486 40.3528 271.94 40.9112 273.784 40.9112C275.68 40.9112 277.174 40.3268 278.265 39.1579C279.356 37.9891 279.901 36.2878 279.901 34.0541V22.3268H283.447Z" fill="#0F172A"/>
<path d="M290.411 18.8592C289.736 18.8592 289.165 18.6255 288.697 18.1579C288.229 17.6904 287.996 17.119 287.996 16.4437C287.996 15.7683 288.229 15.1969 288.697 14.7294C289.165 14.2618 289.736 14.0281 290.411 14.0281C291.061 14.0281 291.606 14.2618 292.048 14.7294C292.515 15.1969 292.749 15.7683 292.749 16.4437C292.749 17.119 292.515 17.6904 292.048 18.1579C291.606 18.6255 291.061 18.8592 290.411 18.8592ZM292.126 22.3268V43.6774H288.58V22.3268H292.126Z" fill="#0F172A"/>
<path d="M305.471 44.0281C303.834 44.0281 302.367 43.7554 301.068 43.2099C299.769 42.6385 298.743 41.8592 297.99 40.8722C297.237 39.8592 296.821 38.7034 296.743 37.4047H300.406C300.51 38.4696 301.003 39.3398 301.886 40.0151C302.795 40.6904 303.977 41.0281 305.432 41.0281C306.782 41.0281 307.847 40.7294 308.627 40.132C309.406 39.5346 309.795 38.7813 309.795 37.8722C309.795 36.9372 309.38 36.2489 308.549 35.8073C307.718 35.3398 306.432 34.8852 304.692 34.4437C303.107 34.0281 301.808 33.6125 300.795 33.1969C299.808 32.7553 298.951 32.119 298.224 31.2878C297.523 30.4307 297.172 29.3138 297.172 27.9372C297.172 26.8463 297.497 25.8463 298.146 24.9372C298.795 24.0281 299.717 23.3138 300.912 22.7943C302.107 22.2489 303.471 21.9761 305.003 21.9761C307.367 21.9761 309.276 22.5735 310.73 23.7683C312.185 24.9631 312.964 26.5995 313.068 28.6774H309.523C309.445 27.5605 308.99 26.6644 308.159 25.9891C307.354 25.3138 306.263 24.9761 304.886 24.9761C303.614 24.9761 302.601 25.2489 301.847 25.7943C301.094 26.3398 300.718 27.0541 300.718 27.9372C300.718 28.6385 300.938 29.2229 301.38 29.6904C301.847 30.132 302.419 30.4956 303.094 30.7813C303.795 31.0411 304.756 31.3398 305.977 31.6774C307.51 32.093 308.756 32.5086 309.718 32.9242C310.679 33.3138 311.497 33.9112 312.172 34.7164C312.873 35.5216 313.237 36.5735 313.263 37.8722C313.263 39.0411 312.938 40.093 312.289 41.0281C311.64 41.9631 310.718 42.7034 309.523 43.2489C308.354 43.7683 307.003 44.0281 305.471 44.0281Z" fill="#0F172A"/>
<path d="M337.748 32.1839C337.748 32.8592 337.71 33.5735 337.632 34.3268H320.567C320.697 36.4307 321.411 38.08 322.709 39.2748C324.034 40.4437 325.632 41.0281 327.502 41.0281C329.034 41.0281 330.307 40.6774 331.32 39.9761C332.359 39.2489 333.086 38.2878 333.502 37.093H337.32C336.748 39.145 335.606 40.8203 333.891 42.119C332.177 43.3917 330.047 44.0281 327.502 44.0281C325.476 44.0281 323.658 43.5735 322.047 42.6644C320.463 41.7553 319.216 40.4696 318.307 38.8073C317.398 37.119 316.943 35.1709 316.943 32.9631C316.943 30.7553 317.385 28.8203 318.268 27.1579C319.151 25.4956 320.385 24.2229 321.969 23.3398C323.58 22.4307 325.424 21.9761 327.502 21.9761C329.528 21.9761 331.32 22.4177 332.878 23.3008C334.437 24.1839 335.632 25.4047 336.463 26.9631C337.32 28.4956 337.748 30.2359 337.748 32.1839ZM334.086 31.4437C334.086 30.093 333.787 28.9372 333.19 27.9761C332.593 26.9891 331.774 26.2489 330.735 25.7554C329.722 25.2359 328.593 24.9761 327.346 24.9761C325.554 24.9761 324.021 25.5476 322.748 26.6904C321.502 27.8333 320.787 29.4177 320.606 31.4437H334.086Z" fill="#0F172A"/>
</svg>
